<?xml version="1.0" encoding="UTF-8" standalone="no"?>
<svg
   xmlns:dc="http://purl.org/dc/elements/1.1/"
   xmlns:cc="http://creativecommons.org/ns#"
   xmlns:rdf="http://www.w3.org/1999/02/22-rdf-syntax-ns#"
   xmlns:svg="http://www.w3.org/2000/svg"
   xmlns="http://www.w3.org/2000/svg"
   xmlns:sodipodi="http://sodipodi.sourceforge.net/DTD/sodipodi-0.dtd"
   xmlns:inkscape="http://www.inkscape.org/namespaces/inkscape"
   width="164px"
   viewBox="0 0 164 48"
   version="1.1"
   height="48px"
   id="svg4716"
   inkscape:version="0.91 r13725"
   sodipodi:docname="logo-swift-wordmark-2c3e50.svg">
  <metadata
     id="metadata4728">
    <rdf:RDF>
      <cc:Work
         rdf:about="">
        <dc:format>image/svg+xml</dc:format>
        <dc:type
           rdf:resource="http://purl.org/dc/dcmitype/StillImage" />
        <dc:title />
      </cc:Work>
    </rdf:RDF>
  </metadata>
  <defs
     id="defs4726" />
  <sodipodi:namedview
     pagecolor="#ffffff"
     bordercolor="#666666"
     borderopacity="1"
     objecttolerance="10"
     gridtolerance="10"
     guidetolerance="10"
     inkscape:pageopacity="0"
     inkscape:pageshadow="2"
     inkscape:window-width="1592"
     inkscape:window-height="1018"
     id="namedview4724"
     showgrid="false"
     inkscape:zoom="5.03598"
     inkscape:cx="72.65279"
     inkscape:cy="12.844576"
     inkscape:window-x="682"
     inkscape:window-y="247"
     inkscape:window-maximized="0"
     inkscape:current-layer="svg4716" />
  <path
     style="fill:#2c3e50;fill-opacity:1"
     d="M 10.900391 0.59960938 C 10.100391 0.59960938 9.2996094 0.70078125 8.5996094 0.80078125 C 7.7996094 0.90078125 7.1003906 1.1003906 6.4003906 1.4003906 C 6.2003906 1.5003906 5.8992188 1.5992187 5.6992188 1.6992188 C 4.9992187 2.0992188 4.4007812 2.5 3.8007812 3 C 3.6007812 3.2 3.3992188 3.3 3.1992188 3.5 C 2.4992187 4.2 1.8003906 5.1 1.4003906 6 C 0.90039062 6.9 0.60039062 7.9 0.40039062 9 C 0.20039062 10 0.19960937 11.099609 0.099609375 12.099609 L 0.099609375 13.5 L 0.099609375 15.199219 L 0.099609375 22.900391 L 0.099609375 32.900391 L 0.099609375 34.599609 L 0.099609375 36 C 0.099609375 37 0.20039063 38.099609 0.40039062 39.099609 C 0.60039062 40.099609 0.90039062 41.099609 1.4003906 42.099609 C 1.9003906 42.999609 2.4992187 43.899609 3.1992188 44.599609 C 3.8992188 45.299609 4.7992187 46.000391 5.6992188 46.400391 C 6.5992188 46.900391 7.5996094 47.200391 8.5996094 47.400391 C 9.5996094 47.600391 10.699219 47.599219 11.699219 47.699219 L 13.099609 47.699219 L 14.800781 47.699219 L 32.5 47.699219 L 34.199219 47.699219 L 35.599609 47.699219 C 36.599609 47.699219 37.699219 47.600391 38.699219 47.400391 C 39.699219 47.200391 40.699609 46.900391 41.599609 46.400391 C 42.499609 45.900391 43.399609 45.299609 44.099609 44.599609 C 44.799609 43.899609 45.500391 42.999609 45.900391 42.099609 C 46.400391 41.199609 46.700391 40.199609 46.900391 39.099609 C 47.100391 38.099609 47.099219 37 47.199219 36 L 47.199219 34.599609 L 47.199219 32.900391 L 47.199219 15.199219 L 47.199219 13.699219 L 47.199219 12.300781 C 47.199219 11.300781 47.100391 10.199219 46.900391 9.1992188 C 46.700391 8.1992188 46.400391 7.1992188 45.900391 6.1992188 C 45.400391 5.2992187 44.799609 4.3992188 44.099609 3.6992188 C 43.399609 2.9992187 42.499609 2.3003906 41.599609 1.9003906 C 40.699609 1.4003906 39.699219 1.1003906 38.699219 0.90039062 C 37.699219 0.70039063 36.599609 0.69960938 35.599609 0.59960938 L 34.199219 0.59960938 L 32.5 0.59960938 L 20 0.59960938 L 14.800781 0.59960938 L 13.099609 0.59960938 L 11.699219 0.59960938 L 10.900391 0.59960938 z M 26.599609 7.3007812 C 34.699609 12.200781 39.5 21.399609 37.5 29.099609 C 37.447 29.307609 37.391078 29.513844 37.330078 29.714844 C 37.353078 29.743844 37.376391 29.771781 37.400391 29.800781 C 41.400391 34.800781 40.300781 40.099609 39.800781 39.099609 C 37.630781 34.854609 33.613266 36.152672 31.572266 37.013672 C 27.375266 39.438672 21.605781 39.687219 15.800781 37.199219 C 11.100781 35.199219 7.1992188 31.699219 4.6992188 27.699219 C 5.8992188 28.699219 7.3007812 29.499219 8.8007812 30.199219 C 14.795781 33.009219 20.788859 32.818031 25.005859 30.207031 C 25.003859 30.205031 25.002 30.201219 25 30.199219 C 19 25.599219 13.899609 19.599219 10.099609 14.699219 C 9.2996094 13.899219 8.6996094 12.9 8.0996094 12 C 12.699609 16.2 19.999609 21.5 22.599609 23 C 17.099609 17.2 12.200391 9.9992188 12.400391 10.199219 C 21.100391 18.999219 29.199219 24 29.199219 24 C 29.468219 24.151 29.674797 24.276672 29.841797 24.388672 C 30.016797 23.942672 30.170781 23.48 30.300781 23 C 31.700781 17.9 30.099609 12.100781 26.599609 7.3007812 z "
     id="path4718" />
  <path
     d="m153.5 21h-11.6v-1.5c0-1.2 0.1-2.4 0.2-3.6s0.4-2.2 0.8-3 1-1.5 1.7-2c0.8-0.5 1.8-0.8 3-0.8 0.8 0 1.4 0.1 1.9 0.2 0.5 0.2 0.9 0.3 1.3 0.5l0.8-2c-0.4-0.2-0.9-0.4-1.6-0.6-0.6-0.2-1.4-0.3-2.2-0.3-1.6 0-2.9 0.3-4 0.9s-2 1.5-2.7 2.5c-0.6 1-1.1 2.3-1.4 3.7s-0.4 3-0.4 4.6v1.5h-3.8v2h3.8v24.2h2.6v-24.3h11.7-0.1v16.6c0 1.2 0.1 2.3 0.3 3.3 0.1 1 0.5 1.9 0.9 2.6s1 1.3 1.8 1.7 1.8 0.6 3 0.6c1.5 0 2.6-0.2 3.5-0.6l-0.3-2c-0.3 0.1-0.7 0.2-1.2 0.3s-1 0.1-1.7 0.1c-1.4 0-2.3-0.5-2.9-1.4-0.5-0.9-0.8-2.3-0.8-4v-17.1h7.3v-2h-7.3v-5.8l-2.6 0.8v4.9zm0.1 0h0.1-0.1zm0.1 2h-0.1zm-90.8 20.3c1 0.7 2.2 1.3 3.6 1.7 1.3 0.4 2.8 0.7 4.3 0.7 2.7 0 4.9-0.7 6.4-2.1s2.3-3.3 2.3-5.5c0-2.1-0.6-3.8-1.7-5.1s-3-2.5-5.6-3.6c-2.8-1-5.1-2.3-6.8-3.9s-2.5-3.7-2.5-6.2c0-1.3 0.3-2.6 0.8-3.7s1.3-2.1 2.2-2.9 2-1.5 3.3-1.9c1.3-0.5 2.7-0.7 4.2-0.7 1.7 0 3.2 0.2 4.4 0.5 1.2 0.4 2.1 0.7 2.7 1.1l-1 2.2c-0.5-0.4-1.3-0.7-2.4-1.1s-2.4-0.6-3.9-0.6-2.7 0.2-3.7 0.6-1.8 1-2.4 1.6c-0.6 0.7-1 1.4-1.3 2.2s-0.4 1.5-0.4 2.3c0 2 0.6 3.7 1.8 4.9s3.1 2.3 5.7 3.4c1.5 0.6 2.8 1.3 3.9 2s2.1 1.5 2.9 2.3 1.3 1.8 1.7 2.8c0.4 1.1 0.6 2.3 0.6 3.6s-0.2 2.6-0.7 3.9c-0.5 1.2-1.2 2.3-2.2 3.2s-2.2 1.7-3.6 2.2-3.1 0.8-5 0.8c-0.8 0-1.6-0.1-2.4-0.2s-1.6-0.3-2.4-0.5-1.5-0.5-2.2-0.8-1.3-0.6-1.7-0.9l1.1-2.3zm24-22.2l4.3 14.9c0.4 1.5 0.8 3 1.2 4.3s0.7 2.7 1 3.9h0.2c0.3-1.2 0.7-2.5 1.1-3.9s0.9-2.8 1.4-4.3l5.1-14.9h2.4l4.9 14.7c0.5 1.6 1 3.1 1.4 4.5s0.8 2.7 1.1 3.9h0.2c0.3-1.3 0.6-2.6 1-3.9s0.8-2.8 1.3-4.4l4.6-14.8h2.6l-8.6 26.2h-2.1l-4.9-14.6c-0.5-1.6-1-3.1-1.5-4.5-0.4-1.4-0.8-2.9-1.1-4.4h-0.1c-0.4 1.6-0.8 3.1-1.3 4.5s-1 2.9-1.5 4.5l-5.1 14.5h-2.2l-8-26.2h2.6zm39.3 0h2.6v26.2h-2.6v-26.2zm-1-8c0-0.6 0.2-1.1 0.6-1.6 0.4-0.4 0.9-0.7 1.6-0.7 0.6 0 1.1 0.2 1.6 0.7 0.4 0.4 0.7 1 0.7 1.6s-0.2 1.1-0.7 1.6c-0.4 0.4-1 0.6-1.6 0.6s-1.1-0.2-1.6-0.6c-0.4-0.5-0.6-1-0.6-1.6z"
     fill="#221F20"
     id="path4722"
     style="fill:#2c3e50;fill-opacity:1" />
</svg>
