<svg version="1.0" xmlns="http://www.w3.org/2000/svg"
 width="300.000000pt" height="300.000000pt" viewBox="0 0 128.000000 128.000000"
 preserveAspectRatio="xMidYMid meet">
<g transform="translate(0.000000,128.000000) scale(0.100000,-0.100000)"
fill="#000000" stroke="none">
<path d="M746 1255 c-72 -30 -89 -45 -122 -106 -14 -25 -48 -63 -77 -85 -76
-58 -105 -94 -123 -149 -20 -60 -30 -73 -46 -57 -8 8 -6 29 10 84 26 87 27 99
6 168 -31 103 -108 148 -172 100 -15 -11 -52 -24 -82 -29 -37 -6 -60 -16 -72
-31 -32 -39 -20 -62 40 -75 43 -9 49 -27 28 -84 -33 -94 -16 -215 44 -295 62
-85 102 -111 174 -113 34 -1 64 -2 67 -3 8 0 23 -221 24 -340 0 -73 -5 -106
-19 -138 l-19 -42 -179 0 -178 0 0 -30 0 -30 590 0 590 0 0 30 c0 29 -1 30
-48 30 l-47 0 -12 52 c-10 40 -10 69 -1 118 13 76 13 83 3 262 -7 143 5 253
28 245 28 -9 35 -117 11 -177 -23 -58 -5 -73 31 -26 20 26 28 51 32 95 9 93
-3 141 -47 200 -22 29 -54 83 -71 119 -18 37 -42 81 -55 97 -12 17 -34 59 -48
94 -55 136 -130 169 -260 116z m271 -701 c13 -38 32 -90 43 -115 26 -61 32
-250 10 -326 l-15 -53 -97 0 -97 0 6 33 c4 26 -1 40 -21 64 -14 17 -26 37 -26
44 0 8 21 46 47 84 46 68 47 73 53 165 7 98 38 186 62 178 6 -2 22 -35 35 -74z
m-191 -21 c4 -21 8 -78 8 -128 1 -75 -3 -97 -21 -132 -29 -53 -38 -58 -69 -38
-26 17 -64 71 -64 92 0 6 16 30 35 53 19 23 35 48 35 56 0 8 9 31 20 51 11 21
20 45 20 54 0 17 9 29 21 29 5 0 11 -17 15 -37z m-194 -28 c-2 -22 -10 -55
-18 -74 -8 -18 -14 -51 -14 -72 0 -31 6 -44 32 -66 51 -44 89 -86 98 -108 10
-27 -8 -64 -42 -81 -15 -8 -28 -19 -28 -24 0 -6 -40 -10 -96 -10 l-96 0 6 27
c3 16 8 50 12 78 4 27 13 64 20 82 8 18 14 55 14 83 0 28 7 67 15 87 8 19 15
44 15 54 0 10 4 30 10 44 8 22 15 26 42 23 32 -3 33 -4 30 -43z"/>
</g>
</svg>
