<svg id="Ebene_1" data-name="Ebene 1" xmlns="http://www.w3.org/2000/svg" xmlns:xlink="http://www.w3.org/1999/xlink" viewBox="0 0 102.38 103.51"><defs><style>.cls-1{fill:url(#linear-gradient);}.cls-2{fill:url(#linear-gradient-2);}</style><linearGradient id="linear-gradient" x1="458.57" y1="-177.81" x2="558.98" y2="-264.2" gradientTransform="matrix(0.56, 0, 0, -0.57, -253.27, -92.42)" gradientUnits="userSpaceOnUse"><stop offset="0" stop-color="#5a9fd4"/><stop offset="1" stop-color="#306998"/></linearGradient><linearGradient id="linear-gradient-2" x1="597.79" y1="-316.47" x2="561.94" y2="-265.75" gradientTransform="matrix(0.56, 0, 0, -0.57, -253.27, -92.42)" gradientUnits="userSpaceOnUse"><stop offset="0" stop-color="#ffd43b"/><stop offset="1" stop-color="#ffe873"/></linearGradient></defs><title>python3</title><g id="original"><path id="path1948" class="cls-1" d="M57.77,5.63a70.47,70.47,0,0,0-11.8,1C35.52,8.49,33.62,12.35,33.62,19.48v9.41H58.31V32h-34c-7.18,0-13.46,4.31-15.43,12.52-2.27,9.41-2.37,15.27,0,25.1C10.68,77,14.87,82.16,22,82.16h8.49V70.88A15.69,15.69,0,0,1,46,55.54H70.63A12.44,12.44,0,0,0,83,43V19.48c0-6.69-5.65-11.72-12.35-12.84A77.09,77.09,0,0,0,57.77,5.63ZM44.41,13.2a4.71,4.71,0,1,1-4.63,4.72A4.69,4.69,0,0,1,44.41,13.2Z" transform="translate(-7.19 -5.63)"/><path id="path1950" class="cls-2" d="M86.06,32V43A15.84,15.84,0,0,1,70.63,58.65H46A12.6,12.6,0,0,0,33.62,71.2V94.71c0,6.69,5.82,10.63,12.35,12.55a41.33,41.33,0,0,0,24.67,0C76.85,105.46,83,101.83,83,94.71V85.3H58.31V82.16h37c7.18,0,9.85-5,12.35-12.52,2.58-7.74,2.47-15.17,0-25.1C105.9,37.4,102.51,32,95.32,32H86.06ZM72.18,91.57a4.71,4.71,0,1,1-4.63,4.69A4.66,4.66,0,0,1,72.18,91.57Z" transform="translate(-7.19 -5.63)"/></g></svg>